<svg width="54" height="38" viewBox="0 0 54 38" fill="none" xmlns="http://www.w3.org/2000/svg">
<path d="M21.2579 16.7425H13.5545L13.5572 16.7186C13.9042 15.0196 14.5832 13.406 15.5554 11.9701C17.0022 9.83854 19.0315 8.16805 21.4013 7.15787C22.2038 6.81775 23.0409 6.55734 23.8938 6.38462C25.6633 6.02588 27.4867 6.02588 29.2561 6.38462C31.799 6.90568 34.1324 8.16341 35.9656 10.0011L39.7283 6.2491C38.0325 4.55283 36.0261 3.19871 33.8186 2.2606C32.6928 1.78397 31.5222 1.42079 30.3243 1.17645C27.8527 0.674258 25.3053 0.674258 22.8336 1.17645C21.6348 1.4218 20.4634 1.78586 19.3367 2.26325C16.0165 3.67186 13.1744 6.01019 11.1524 8.99668C9.7916 11.0105 8.83998 13.2721 8.35168 15.653C8.27728 16.0118 8.23742 16.3785 8.18427 16.7425H0L10.6289 27.3714L21.2579 16.7425ZM31.8868 22.057H39.5901L39.5874 22.0782C38.8932 25.4842 36.8856 28.4797 33.9993 30.4166C32.5639 31.3896 30.95 32.0688 29.2508 32.4149C27.4823 32.7736 25.6597 32.7736 23.8912 32.4149C22.1922 32.0679 20.5785 31.3888 19.1427 30.4166C18.4375 29.9396 17.7791 29.3969 17.1763 28.7957L13.419 32.553C15.1157 34.2488 17.123 35.6021 19.3314 36.5389C20.458 37.0172 21.6352 37.3812 22.8256 37.623C25.2964 38.1255 27.843 38.1255 30.3137 37.623C35.0769 36.6344 39.2667 33.827 41.9922 29.7975C43.3517 27.7852 44.3024 25.5254 44.7903 23.1464C44.862 22.7877 44.9046 22.421 44.9577 22.057H53.1446L42.5157 11.428L31.8868 22.057Z" fill="black"/>
</svg>
